<svg xmlns="http://www.w3.org/2000/svg" width="149" height="66" viewBox="0 0 149 66">
  <g fill="none" fill-rule="evenodd" transform="translate(.534)">
    <rect width="148" height="65.5" fill="#000"/>
    <path fill="#FFF" fill-rule="nonzero" d="M14.15275 24L14.15275 18.4407 19.45645 18.4407 19.45645 24 23.88685 24 23.88685 9.0687 19.45645 9.0687 19.45645 15.0114 14.15275 15.0114 14.15275 9.0687 9.72235 9.0687 9.72235 24 14.15275 24zM33.68485 24.2982C35.21845 24.2982 36.6065 23.96095 37.849 23.28645 39.0915 22.61195 40.0642 21.68185 40.7671 20.49615 41.47 19.31045 41.82145 17.9792 41.82145 16.5024 41.82145 15.0398 41.47 13.72275 40.7671 12.55125 40.0642 11.37975 39.0915 10.4603 37.849 9.7929 36.6065 9.1255 35.21845 8.7918 33.68485 8.7918 32.13705 8.7918 30.74545 9.1255 29.51005 9.7929 28.27465 10.4603 27.3055 11.37975 26.6026 12.55125 25.8997 13.72275 25.54825 15.0398 25.54825 16.5024 25.54825 17.9792 25.8997 19.31045 26.6026 20.49615 27.3055 21.68185 28.27465 22.61195 29.51005 23.28645 30.74545 23.96095 32.13705 24.2982 33.68485 24.2982zM33.74875 20.6133C33.09555 20.6133 32.4885 20.43225 31.9276 20.07015 31.3667 19.70805 30.9194 19.2146 30.5857 18.5898 30.252 17.965 30.08515 17.2763 30.08515 16.5237 30.08515 15.7711 30.252 15.08595 30.5857 14.46825 30.9194 13.85055 31.3667 13.3642 31.9276 13.0092 32.4885 12.6542 33.09555 12.4767 33.74875 12.4767 34.40195 12.4767 34.99835 12.6542 35.53795 13.0092 36.07755 13.3642 36.50355 13.85055 36.81595 14.46825 37.12835 15.08595 37.28455 15.7711 37.28455 16.5237 37.28455 17.2905 37.12835 17.98275 36.81595 18.60045 36.50355 19.21815 36.074 19.70805 35.5273 20.07015 34.9806 20.43225 34.38775 20.6133 33.74875 20.6133zM51.49165 24L54.09025 14.4363 56.60365 24 61.16185 24 66.20995 9.0687 61.67305 9.0687 59.03185 19.4205 56.34805 9.0687 52.02415 9.0687 49.36165 19.4418 46.67785 9.0687 41.94925 9.0687 46.95475 24 51.49165 24zM75.79495 24L75.79495 15.1392 79.20295 22.5303 82.07845 22.5303 85.48645 15.1392 85.48645 24 89.38435 24 89.38435 9.0687 84.63445 9.0687 80.65135 17.3544 76.64695 9.0687 71.89705 9.0687 71.89705 24 75.79495 24zM95.02885 24L95.92345 21.6144 101.95135 21.6144 102.82465 24 107.55325 24 101.39755 9.0687 96.83935 9.0687 90.47065 24 95.02885 24zM100.77985 18.3768L97.15885 18.3768 98.99065 13.4991 100.77985 18.3768zM112.70785 24L112.70785 15.693 119.03395 24 122.80405 24 122.80405 9.0687 118.75705 9.0687 118.75705 17.397 112.43095 9.0687 108.63955 9.0687 108.63955 24 112.70785 24zM133.79485 24L133.79485 19.2714 139.16245 9.0687 134.75335 9.0687 131.57965 15.1605 128.32075 9.0687 123.89035 9.0687 129.36445 19.3566 129.36445 24 133.79485 24zM26.18565 56L26.18565 34.6 34.34565 34.6 34.34565 27.96 9.70565 27.96 9.70565 34.6 17.82565 34.6 17.82565 56 26.18565 56zM45.26565 56L45.26565 27.96 36.94565 27.96 36.94565 56 45.26565 56zM57.30565 56L57.30565 39.36 63.70565 53.24 69.10565 53.24 75.50565 39.36 75.50565 56 82.82565 56 82.82565 27.96 73.90565 27.96 66.42565 43.52 58.90565 27.96 49.98565 27.96 49.98565 56 57.30565 56zM110.86565 56L110.86565 49.6 95.86565 49.6 95.86565 45.16 109.10565 45.16 109.10565 38.76 95.86565 38.76 95.86565 34.36 110.46565 34.36 110.46565 27.96 87.54565 27.96 87.54565 56 110.86565 56zM126.46565 56.48C128.62565 56.48 130.578983 56.1466667 132.32565 55.48 134.072317 54.8133333 135.458983 53.8066667 136.48565 52.46 137.512317 51.1133333 138.02565 49.4666667 138.02565 47.52 138.02565 45.6 137.552317 44.0533333 136.60565 42.88 135.658983 41.7066667 134.54565 40.8333333 133.26565 40.26 131.98565 39.6866667 130.358983 39.12 128.38565 38.56 126.652317 38.08 125.38565 37.6333333 124.58565 37.22 123.78565 36.8066667 123.38565 36.2266667 123.38565 35.48 123.38565 34.9466667 123.592317 34.54 124.00565 34.26 124.418983 33.98 124.98565 33.84 125.70565 33.84 126.852317 33.84 128.318983 34.1466667 130.10565 34.76 131.892317 35.3733333 133.532317 36.12 135.02565 37L135.02565 37 138.10565 30.6C136.558983 29.6133333 134.74565 28.82 132.66565 28.22 130.58565 27.62 128.492317 27.32 126.38565 27.32 124.06565 27.32 122.032317 27.68 120.28565 28.4 118.538983 29.12 117.18565 30.1533333 116.22565 31.5 115.26565 32.8466667 114.78565 34.4266667 114.78565 36.24 114.78565 38.1066667 115.252317 39.6133333 116.18565 40.76 117.118983 41.9066667 118.22565 42.7533333 119.50565 43.3 120.78565 43.8466667 122.398983 44.3733333 124.34565 44.88 126.078983 45.3333333 127.358983 45.7666667 128.18565 46.18 129.012317 46.5933333 129.42565 47.1866667 129.42565 47.96 129.42565 48.6 129.172317 49.0933333 128.66565 49.44 128.158983 49.7866667 127.452317 49.96 126.54565 49.96 125.078983 49.96 123.32565 49.54 121.28565 48.7 119.24565 47.86 117.518983 46.8266667 116.10565 45.6L116.10565 45.6 112.98565 51.92C114.74565 53.3333333 116.832317 54.4466667 119.24565 55.26 121.658983 56.0733333 124.06565 56.48 126.46565 56.48z"/>
  </g>
</svg>
